<svg id="Layer_1" data-name="Layer 1" xmlns="http://www.w3.org/2000/svg" viewBox="0 0 1018.19 382.51"><defs><style>.cls-1{fill:#d8315e;}.cls-2{fill:#f5b11b;}.cls-3{fill:#1875e3;}.cls-4{fill:#1a76e3;}</style></defs><path class="cls-1" d="M242.23,496.13c-6.07,5.07-11.42,10.94-17.74,15.75q-57.23,43.51-127.67,29A17.51,17.51,0,0,1,94.5,540c1.56-.83,2.78-1.46,4-2.13,6.89-3.88,10.33-9.72,10.31-17.68,0-7.19-.51-14.4.81-21.56,1.06-5.77,3.38-10.42,9.47-12.37,2.4-.77,3.9-2.73,5.12-4.86a16.86,16.86,0,0,0,2.51-7.14c.43-6.19.62-11.71,9.26-12.51,4.46-.41,5.93-5.17,4.69-10.23-1.51-6.21-2.73-12.38-1.21-18.82,1.89-8,5.74-11.2,14-11.12a51,51,0,0,0,13.49-1.14c8.86-2.31,12.46-8.3,10.43-17.26-1.26-5.55-3.92-10.56-6.07-15.77-7.16-17.35-14.54-34.61-17.67-53.3a63.88,63.88,0,0,1,.69-24.37c3.68-17.07,4.68-34.09-1.94-50.83-2.67-6.73-7.07-12.14-12-17.26h2.55c7.38,1.77,15,2.35,22.37,4.06A151.62,151.62,0,0,1,279.84,367c.79,4.57,1.47,9.16,2.2,13.74a148.46,148.46,0,0,1-1.6,34,163.28,163.28,0,0,1-15.38,48.42C259,475.23,250.73,485.77,242.23,496.13Z" transform="translate(-94.5 -241.65)"/><path class="cls-2" d="M242.23,496.13c8.5-10.36,16.78-20.9,22.83-32.94a163.28,163.28,0,0,0,15.38-48.42,148.46,148.46,0,0,0,1.6-34c23.13-25.12,51.73-40.55,85.22-46.41,38.37-6.72,74.27.63,107.42,21.08,1.16.71,2.6,1.13,3.27,2.57-24.12,3.33-38.9,19.12-48.56,39.23-9.54,19.85-24.86,32.89-42.85,43.82-9.54,5.8-19.33,11.21-29.05,16.72a45.34,45.34,0,0,0-8.42,5.67c-5.74,5.23-6.47,11.37-2.19,17.83,2.86,4.32,6.82,7.52,10.9,10.59,6.28,4.74,7.5,9.38,4.26,16.6a33.76,33.76,0,0,1-10,12.43c-8.81,7.08-9.09,10.36-1.48,18.47.38.4.69.88,1.07,1.37-2.9,4.41-6,8.63-7.42,13.78-1,3.6-.94,7,1.07,10.19,2.5,4,2.2,8.06.47,12.16-2.74,6.47-7.22,11.79-11.53,17.2-8.16,10.24-8.78,14.43-3.67,26.41-1.57.8-2.71-.39-3.84-1Q255.93,583,243.11,504.55C242.66,501.77,242.52,498.94,242.23,496.13Z" transform="translate(-94.5 -241.65)"/><path class="cls-3" d="M583.78,383.26c3.15,1.7,6,3,8.56,4.66,22.88,14.6,18.64,41.95,2.82,54.71-8.38,6.77-18.1,9.83-28.69,10-16,.23-32,.12-48,.08-4.44,0-6-1.5-6-5.81q0-62.29,0-124.6c0-4.42,1.44-5.86,5.83-5.87,15.44,0,30.87-.13,46.3.06a43.59,43.59,0,0,1,23.29,6.9c20.5,13.15,21.94,39.48,3,54.77C588.75,379.9,586.38,381.41,583.78,383.26ZM540,412.54c0,4.8.12,9.61,0,14.41-.08,2.37.63,3.21,3.08,3.15,6.51-.14,13,0,19.54-.06,10.56-.07,17.73-6.41,18.59-16.38.73-8.41-6.19-16.19-16-17.72-7.59-1.19-15.27-.25-22.9-.52-2-.07-2.25,1.1-2.23,2.71C540,402.93,540,407.74,540,412.54Zm0-56.37c0,4.66,0,9.32,0,14,0,1.72.06,3,2.4,2.94,6.65-.13,13.33.27,19.94-.21,9.59-.69,15.67-8.38,15.23-18.46-.41-9.15-6.76-15.19-16.3-15.35-5.94-.1-11.89.07-17.83-.07-2.41-.05-3.63.37-3.49,3.2C540.13,346.84,540,351.51,540,356.17Z" transform="translate(-94.5 -241.65)"/><path class="cls-3" d="M583.55,552.47c2.65,1.35,5.23,2.47,7.64,3.9,23.88,14.19,20.43,42.37,3.7,55.65a42.47,42.47,0,0,1-26.24,9.56c-16.84.27-33.7.07-50.55.16-4,0-5.62-1.74-5.62-5.64q.06-62.31,0-124.62c0-3.85,1.48-5.83,5.47-5.81,16.43.08,32.86-.1,49.28.26a39.63,39.63,0,0,1,25.49,10.23c16.64,14.48,15.15,38.75-3.17,52.26C587.62,549.84,585.59,551.1,583.55,552.47ZM540,581.87c0,4.81.11,9.62,0,14.42-.08,2.39.68,3.21,3.12,3.16,6.79-.14,13.6,0,20.4-.09a18.16,18.16,0,0,0,9.66-2.8,17.4,17.4,0,0,0,7.53-18.8c-1.79-6.75-9.28-12.55-17.29-12.9-6.79-.3-13.6,0-20.4-.19-2.53-.07-3.09.91-3,3.21C540.07,572.54,540,577.21,540,581.87Zm0-57c0,4.66.15,9.33-.05,14-.12,2.66.83,3.37,3.38,3.3,5.94-.16,11.89,0,17.83-.07,9.59-.18,16.21-7,16.42-16.85s-5.83-16.54-15.56-17c-6.35-.32-12.74,0-19.1-.16-2.63-.08-3,1.07-3,3.28C540.05,515.79,540,520.31,540,524.83Z" transform="translate(-94.5 -241.65)"/><path class="cls-4" d="M1091.76,442.34c-5.81,5.38-12,9.44-19.44,11.31-17.35,4.38-35.25-2.92-45.66-18.58-15.28-23-9.13-56.07,13.12-69.86,11.32-7,23.61-8.11,36.4-5.09,2.46.58,4.87,1.36,7.29,2.05,1.25-1.49.71-3.09.71-4.55.06-11.31,0-22.62,0-33.93,0-6.05,1.22-7.28,7.12-7.3h14c6,0,7.3,1.27,7.31,7.11,0,7.5,0,15,0,22.48V444.8c0,6.75-1.18,7.51-7.84,8-6.15.47-10.14-1.33-11.65-7.54A17.51,17.51,0,0,0,1091.76,442.34Zm-7.54-38.93v-5.5c0-11.73-.56-12.38-12.27-14.28-.28-.05-.56-.11-.84-.14-10.9-1.39-20.56,4.17-24.44,14.08-4.07,10.42-.77,22.89,7.83,28.88,6.47,4.5,13.52,5,20.46,1.46,6.5-3.34,10.22-8.65,9.31-16.47A69.34,69.34,0,0,1,1084.22,403.41Z" transform="translate(-94.5 -241.65)"/><path class="cls-3" d="M761.93,415.23c7.3-16.42,14.43-31.76,20.89-47.39,2.28-5.52,5.36-7.62,11.13-7.12,4.64.4,9.34,0,14,.13,5,.17,6.48,2.38,4.43,6.82q-29,62.63-58,125.22c-1.36,2.94-3.28,4.28-6.59,4.15-5-.19-9.91,0-14.86-.05-7.13,0-8.48-2.09-5.5-8.43,6.13-13,12.22-26.06,18.48-39a6.83,6.83,0,0,0,0-6.67q-17.51-36.67-34.74-73.48c-3-6.42-1.72-8.54,5.33-8.58,5.24,0,10.49.14,15.72-.06,3.82-.15,5.87,1.48,7.37,4.93,6.43,14.75,13.08,29.39,19.66,44.07C760,411.26,760.72,412.73,761.93,415.23Z" transform="translate(-94.5 -241.65)"/><path class="cls-4" d="M938.41,371.08c8.63-8.34,18.3-12.54,29.84-12.49,19.8.08,33.28,10.82,37.42,30.15a72.59,72.59,0,0,1,1.66,15.13q0,21,0,42c0,5.43-1.37,6.81-6.71,6.85-4.81,0-9.63.05-14.45,0-5.14,0-6.58-1.44-6.59-6.54,0-14.42,0-28.83-.05-43.25,0-7.8-3.19-14.09-10.26-17.75-11.33-5.87-24.48,3.22-24.69,17.15-.22,14.55-.06,29.11-.08,43.67,0,5.88-.75,6.67-6.5,6.72q-7,.07-14,0c-5-.05-6.48-1.46-6.49-6.22q0-39.86,0-79.71c0-4.34,1.54-5.77,5.89-6,.7,0,1.42.08,2.12,0,5.86-.86,9.92,1.05,11.39,7.18A17.66,17.66,0,0,0,938.41,371.08Z" transform="translate(-94.5 -241.65)"/><path class="cls-3" d="M819.62,580.53q-13.38,0-26.76,0c-4.43,0-4.6.29-3.18,4.63,4,12.06,16.43,17.9,30.05,14.05a34.84,34.84,0,0,0,9.62-4.37c2.75-1.8,5.16-1.72,7.41,1,2.49,3.07,5.19,6,7.9,8.85s2.52,5-.48,7.46a51.16,51.16,0,0,1-40.87,11.28c-25.51-3.61-42.94-24.5-41.28-50,1.32-20.21,11.29-35.19,30.55-42.44,18.4-6.93,35.5-3.78,49.66,10.35,9.27,9.26,12.3,21,11.23,33.86-.32,3.88-2.55,5.34-6.24,5.32C838,580.5,828.82,580.53,819.62,580.53Zm8.13-16.24c-.19-8.12-8.06-15.09-17.26-15.49-10.25-.44-19.91,6.69-20.75,15.49Z" transform="translate(-94.5 -241.65)"/><path class="cls-3" d="M644.46,411.29a21.33,21.33,0,0,0,18.16,19.57,32,32,0,0,0,21.15-4.55c4.9-2.9,5.48-2.79,9.26,1.44,2.54,2.85,5.06,5.72,7.63,8.55,2,2.25,1.81,4.35-.45,6.21-15.11,12.38-32.29,15.51-50.63,9.67-17.71-5.64-28.32-18.53-31.35-36.69-4.64-27.94,12.07-51.41,39.29-56.35,28.26-5.14,52.94,16.42,51.51,45-.3,5.93-1.55,7.15-7.42,7.15H644.46Zm38.85-16.24c-.71-8.92-8.72-15.42-18.64-15.28s-18.95,7.08-19.36,15.28Z" transform="translate(-94.5 -241.65)"/><path class="cls-3" d="M729.85,611c-8.39,8.24-17.29,12.42-27.76,13.08-21.63,1.35-37.11-11.22-40.62-32.94a71.05,71.05,0,0,1-1-11.38q0-22,0-44.07c0-3.91,1.67-5.72,5.61-5.65,5.38.09,10.76,0,16.14,0,4.47.05,5.71,1.3,5.72,5.89,0,13.71,0,27.41,0,41.11a39.11,39.11,0,0,0,.71,7.56c1.73,8.43,9,14.68,16.9,14.71s15.2-6.25,17-14.64a38.37,38.37,0,0,0,.71-7.57c.07-13.7,0-27.4,0-41.1,0-5.33.62-5.93,5.8-6s10.47,0,15.71,0c3.49,0,5.23,1.61,5.23,5.15q0,40.68,0,81.36c0,3.48-1.71,4.83-5.18,5.26C737,622.77,731.13,621,729.85,611Z" transform="translate(-94.5 -241.65)"/><path class="cls-3" d="M906.42,406.49c0,26.69-21.17,48.36-47.16,48.31S812,432.63,812.18,406.25c.2-26,21.55-47.59,47.11-47.61C885.18,358.61,906.43,380.19,906.42,406.49Zm-69,.19c0,13.22,9.78,23.44,22.22,23.36,12-.09,21.84-10.54,21.92-23.39s-10-23.43-22.39-23.32S837.32,393.69,837.37,406.68Z" transform="translate(-94.5 -241.65)"/><path class="cls-4" d="M647,553.78q0,30.5,0,61c0,5.8-1.13,6.92-6.91,6.93-4.81,0-9.62,0-14.43,0-5,0-6.32-1.31-6.35-6.25-.06-9.74,0-19.48,0-29.23q0-46.59,0-93.19c0-6.35,1.08-7.44,7.38-7.47,4.53,0,9.06,0,13.59,0,5.48.06,6.74,1.33,6.74,6.77Q647,523.07,647,553.78Z" transform="translate(-94.5 -241.65)"/></svg>